# xmcd
#
# Track frame offsets: 
#        150
#        13074
#        21985
#        32381
#        43455
#        52915
#        62310
#        72238
#        81490
#        91595
#        102368
#        113045
#        124488
#        134389
#        146568
#        155967
#        167521
#        179512
#        191186
#        202486
#        210904
#        219255
#        230329
#        241105
#        251966
#        263485
#        273556
#        285369
#        296465
#        306029
#
# Disc length: 4200 seconds
#
# Revision: 1
# Processed by: cddbd v1.5.2PL0 Copyright (c) Steve Scherf et al.
# Submitted via: ExactAudioCopyFreeDBPlugin 1.0
#
DISCID=bc10661e
DTITLE=Jim Reeves - Welcome To My World - CD 04
DYEAR=2001
DGENRE=Country
TTITLE0=Four Walls
TTITLE1=Honey Won't You Please Come Home
TTITLE2=Look Behind You
TTITLE3=The Gods Were Angry With Me
TTITLE4=I Know (And You Know)
TTITLE5=I Know (And You Know)(Alt Ver)
TTITLE6=Honey Won't You Please Come Home
TTITLE7=Young Hearts
TTITLE8=I Heard A Heart Break Last Night
TTITLE9=The Image Of Me
TTITLE10=Two Shadows On Your Window
TTITLE11=Teardrops In My Heart
TTITLE12=Yours
TTITLE13=I Don't See Me In Your Eyes Anymore
TTITLE14=I Get The Blues When It Rains
TTITLE15=I Care No More
TTITLE16=Final Affair
TTITLE17=You Belong To Me
TTITLE18=My Happiness
TTITLE19=Everywhere You Go (LP Master)
TTITLE20=Everywhere You Go (Single Master)
TTITLE21=Blues In My Heart
TTITLE22=Need Me
TTITLE23=That's My Desire
TTITLE24=Anna Marie
TTITLE25=Seabreeze
TTITLE26=Blue Without My Baby
TTITLE27=I Love You More
TTITLE28=Theme Of Love (I Love To Say I Love You)
TTITLE29=Wishful Thinking
EXTD=
EXTT0=
EXTT1=
EXTT2=
EXTT3=
EXTT4=
EXTT5=
EXTT6=
EXTT7=
EXTT8=
EXTT9=
EXTT10=
EXTT11=
EXTT12=
EXTT13=
EXTT14=
EXTT15=
EXTT16=
EXTT17=
EXTT18=
EXTT19=
EXTT20=
EXTT21=
EXTT22=
EXTT23=
EXTT24=
EXTT25=
EXTT26=
EXTT27=
EXTT28=
EXTT29=
PLAYORDER=
